<?xml version="1.0" encoding="UTF-8" standalone="no"?>
<svg
   xmlns:dc="http://purl.org/dc/elements/1.1/"
   xmlns:cc="http://creativecommons.org/ns#"
   xmlns:rdf="http://www.w3.org/1999/02/22-rdf-syntax-ns#"
   xmlns:svg="http://www.w3.org/2000/svg"
   xmlns="http://www.w3.org/2000/svg"
   viewBox="0 0 123.15053 94.434533"
   height="94.434532"
   width="123.15053"
   xml:space="preserve"
   id="svg2"
   version="1.1"><metadata
     id="metadata8"><rdf:RDF><cc:Work
         rdf:about=""><dc:format>image/svg+xml</dc:format><dc:type
           rdf:resource="http://purl.org/dc/dcmitype/StillImage" /><dc:title></dc:title></cc:Work></rdf:RDF></metadata><defs
     id="defs6"><clipPath
       id="clipPath926"
       clipPathUnits="userSpaceOnUse"><path
         id="path924"
         d="m 126.547,3849.25 c 0.125,1.84 0.461,3.64 1.172,5.32 3.261,7.7 12.433,10.79 18.121,16.9 7.203,7.71 8.082,19.13 9.504,29.59 1.379,10.47 4.644,22.1 14.019,26.92 5.985,3.09 13.813,2.93 18.293,7.95 1.676,1.84 2.676,4.23 3.891,6.44 7.074,12.9 21.555,19.13 35.703,23.9 -0.254,-2.21 -0.797,-4.6 -0.961,-6.78 -0.465,-7.2 3.891,-13.69 8.074,-19.5 3.434,-4.86 6.867,-9.67 10.301,-14.48 -5.109,6.57 -12.223,11.59 -20.176,14.1 -1.793,0.56 -3.808,0.86 -5.804,0.86 -5.098,0 -10.063,-1.97 -10.813,-6.72 -0.375,-2.51 0.668,-5.06 1.676,-7.41 1.465,-3.34 2.93,-6.74 4.394,-10.08 1.965,-4.48 3.934,-8.96 5.899,-13.48 -7.281,6.45 -13.645,14.1 -22.098,18.92 -4.304,2.44 -9.457,3.94 -14.418,3.94 -4.73,0 -9.293,-1.36 -12.789,-4.57 -7.871,-7.24 -6.863,-19.8 -4.601,-30.22 2.257,-10.46 4.933,-22.22 -0.965,-31.18 -0.668,3.1 -0.418,6.36 -1.133,9.46 -0.668,3.1 -2.758,6.27 -5.898,6.69 -0.243,0.04 -0.485,0.05 -0.723,0.05 -3.117,0 -5.758,-2.69 -7.313,-5.53 -1.636,-3.01 -2.636,-6.48 -5.152,-8.87 -3.344,-3.14 -8.41,-3.56 -12.305,-5.99 -2.468,-1.55 -4.312,-3.76 -5.898,-6.23" /></clipPath></defs><g
     transform="matrix(1.3333333,0,0,-1.3333333,-197.98,218.49599)"
     id="g10"><path
       d="m 203.209,146.208 h -18.546 c -2.147,0 -3.777,1.934 -3.414,4.05 l 1.843,10.737 c 0.285,1.662 1.727,2.877 3.414,2.877 h 14.86 c 1.688,0 3.129,-1.215 3.414,-2.877 l 1.843,-10.737 c 0.363,-2.116 -1.267,-4.05 -3.414,-4.05"
       style="fill:#141424;fill-opacity:1;fill-rule:nonzero;stroke:none;stroke-width:0.1"
       id="path1374" /><path
       d="m 175.054,149.127 7.004,5.174 c 8.217,3.1 11.957,5.444 23.559,0.313 l 6.878,-5.487 -8.984,-10.104 -22.586,0.564 -5.871,9.54"
       style="fill:#f59c93;fill-opacity:1;fill-rule:nonzero;stroke:none;stroke-width:0.1"
       id="path1376" /><path
       d="m 193.806,157.611 0.097,0.163 c 0.091,0.063 0.214,0.015 0.314,-0.033 0.43,-0.21 0.861,-0.42 1.291,-0.631 0.125,-0.061 0.252,-0.123 0.346,-0.226 0.094,-0.101 0.147,-0.252 0.097,-0.382 -0.343,-0.208 -0.782,-0.083 -1.162,0.046 -0.232,0.079 -0.464,0.158 -0.696,0.238 -0.134,0.045 -0.282,0.103 -0.34,0.233 l -0.021,0.227 c 0.012,0.124 0.037,0.247 0.074,0.365"
       style="fill:#ffd3a1;fill-opacity:1;fill-rule:nonzero;stroke:none;stroke-width:0.1"
       id="path1378" /><path
       d="m 199.08,151.536 c 0,-0.347 -0.036,-0.72 -0.1,-1.112 l -0.036,-0.2 c -0.037,-0.191 -0.073,-0.364 -0.128,-0.537 -0.191,-0.701 -0.482,-1.257 -0.846,-1.694 -0.656,-0.765 -1.531,-1.157 -2.551,-1.321 -1.065,-0.155 -2.276,-0.073 -3.542,0.137 -3.388,0.564 -4.772,3.032 -4.28,6.001 0.062,0.33 0.142,0.632 0.23,0.922 0.052,0.178 0.11,0.349 0.175,0.516 0.117,0.303 0.244,0.586 0.387,0.839 0.082,0.137 0.164,0.273 0.246,0.392 0.072,0.1 0.136,0.191 0.209,0.272 0.984,1.158 2.496,1.722 4.545,1.385 0.118,-0.018 0.236,-0.036 0.355,-0.063 0.737,-0.137 1.448,-0.347 2.094,-0.629 0.374,-0.164 0.729,-0.346 1.048,-0.565 1.366,-0.892 2.249,-2.286 2.194,-4.343"
       style="fill:#ffd3a1;fill-opacity:1;fill-rule:nonzero;stroke:none;stroke-width:0.1"
       id="path1380" /><path
       d="m 199.846,150.542 c 0.046,-0.246 -0.128,-0.491 -0.347,-0.61 -0.2,-0.118 -0.446,-0.218 -0.683,-0.245 l -0.118,-0.019 c -0.255,-0.008 -0.565,0.009 -0.665,0.246 l -0.036,0.119 c -0.009,0.1 0.018,0.2 0.045,0.291 0.128,0.473 0.246,0.947 0.374,1.421 0.245,0 0.474,-0.073 0.664,-0.209 0.265,-0.173 0.474,-0.447 0.648,-0.729 l 0.108,-0.219 0.01,-0.046"
       style="fill:#ffd3a1;fill-opacity:1;fill-rule:nonzero;stroke:none;stroke-width:0.1"
       id="path1382" /><path
       d="m 195.417,146.67 c -0.085,-0.569 -9.191,-1.08 -7.819,6.139 1.45,7.629 9.91,3.839 9.286,3.07 -0.32,-0.085 -1.06,-0.528 -1.06,-1.621 0,-1.039 1.1,-1.298 0.999,-2.974 -0.142,-2.363 -1.731,-2.294 -1.752,-3.426 -0.013,-0.469 0.343,-1.039 0.346,-1.188"
       style="fill:#141424;fill-opacity:1;fill-rule:nonzero;stroke:none;stroke-width:0.1"
       id="path1384" /><path
       d="m 186.577,148.193 0.018,0.173 -3.388,0.391 -2.988,0.564 c 0.39,0.104 0.774,0.312 1.126,0.515 0.541,0.314 1.083,0.627 1.624,0.941 0.239,0.137 0.482,0.279 0.67,0.481 0.41,0.44 0.492,1.085 0.533,1.685 0.091,-0.464 0.19,-0.948 0.486,-1.318 0.414,-0.517 1.122,-0.696 1.784,-0.741 0.15,-0.01 0.3,-0.015 0.451,-0.015 0.195,0 0.391,0.008 0.585,0.026 0.088,-1.001 0.432,-1.793 0.932,-2.414 -0.371,-0.058 -0.74,-0.149 -1.105,-0.215 -0.245,-0.036 -0.482,-0.063 -0.728,-0.073"
       style="fill:#df8f87;fill-opacity:1;fill-rule:nonzero;stroke:none;stroke-width:0.1"
       id="path1386" /><path
       d="m 188.41,148.481 c -0.5,0.621 -0.844,1.413 -0.932,2.414 0.161,0.014 0.32,0.034 0.479,0.061 0.039,-0.563 0.22,-1.116 0.521,-1.593 0.17,-0.27 0.385,-0.54 0.519,-0.826 -0.057,-0.001 -0.114,-0.004 -0.171,-0.007 -0.139,-0.01 -0.277,-0.027 -0.416,-0.049"
       style="fill:#151523;fill-opacity:1;fill-rule:nonzero;stroke:none;stroke-width:0.1"
       id="path1388" /><path
       d="m 200.975,148.193 c -0.247,0.01 -0.492,0.037 -0.729,0.073 -0.51,0.091 -1.011,0.228 -1.52,0.264 -0.092,0.006 -0.184,0.009 -0.275,0.009 -0.034,0 -0.069,-10e-4 -0.103,-10e-4 0.191,0.33 0.349,0.711 0.468,1.149 0.237,0.027 0.483,0.127 0.683,0.245 0.195,0.106 0.354,0.312 0.354,0.53 0,0.027 -0.002,0.054 -0.007,0.08 l 0.109,0.046 c 0.838,0.401 1.575,1.075 1.885,1.958 -0.118,-1.056 0.501,-2.149 1.467,-2.577 1.129,-0.511 2.467,-0.128 3.67,-0.465 -0.226,-0.017 -0.385,-0.176 -0.538,-0.351 l -2.094,-0.396 -3.388,-0.391 0.018,-0.173"
       style="fill:#df8f87;fill-opacity:1;fill-rule:nonzero;stroke:none;stroke-width:0.1"
       id="path1390" /><path
       d="m 195.438,145.197 c -0.474,-0.055 -1.047,-0.091 -1.63,-0.1 h -0.028 c -0.619,-0.01 -1.229,0.018 -1.73,0.1 -0.492,0.082 -0.765,0.364 -1.257,0.328 -0.382,-0.036 -0.747,-0.164 -1.111,-0.265 -1.093,-0.291 -2.249,-0.318 -3.36,-0.091 -0.465,0.082 -0.929,0.228 -1.366,0.411 0.018,0.172 0.036,0.345 0.045,0.518 0.055,0.72 0.064,1.44 0.009,2.158 0.519,-0.081 1.048,-0.099 1.567,-0.063 0.246,0.01 0.483,0.037 0.728,0.073 0.501,0.091 1.011,0.228 1.521,0.264 1.375,0.091 2.687,-0.529 3.916,-1.138 0.346,-0.164 0.683,-0.337 1.029,-0.511 0.583,-0.282 1.175,-0.573 1.758,-0.865 l 0.036,-0.017 c 0.091,-0.046 0.173,-0.092 0.219,-0.183 0.127,-0.273 -0.046,-0.583 -0.346,-0.619"
       style="fill:#ffd3a1;fill-opacity:1;fill-rule:nonzero;stroke:none;stroke-width:0.1"
       id="path1392" /><path
       d="m 186.595,148.366 -0.018,-0.173 -0.173,-2.022 -0.082,-1.002 -0.01,-0.072 c -0.2,-0.046 -8.287,-0.957 -9.097,-0.957 h -0.638 c -1.093,0.137 -1.958,0.875 -2.304,1.831 -0.136,0.373 -0.2,0.774 -0.155,1.193 l 0.009,0.182 0.01,0.055 c 0.1,0.692 0.437,1.293 0.92,1.73 0.61,0.556 1.457,0.856 2.34,0.746 l 1.129,-0.236 4.681,-0.884 3.388,-0.391"
       style="fill:#f59c93;fill-opacity:1;fill-rule:nonzero;stroke:none;stroke-width:0.1"
       id="path1394" /><path
       d="m 202.596,145.58 c -0.437,-0.183 -0.893,-0.32 -1.366,-0.411 -1.111,-0.227 -2.268,-0.2 -3.361,0.091 -0.373,0.101 -0.737,0.229 -1.111,0.265 -0.501,0.036 -0.774,-0.246 -1.257,-0.328 -0.482,-0.082 -1.092,-0.11 -1.693,-0.1 h -0.028 c -0.592,0.009 -1.193,0.045 -1.675,0.1 -0.301,0.036 -0.465,0.346 -0.337,0.619 l 0.154,0.155 0.092,0.045 c 0.582,0.292 1.174,0.583 1.757,0.865 0.346,0.174 0.683,0.347 1.029,0.511 1.239,0.609 2.55,1.229 3.926,1.138 0.509,-0.036 1.01,-0.173 1.52,-0.264 0.237,-0.036 0.482,-0.063 0.729,-0.073 0.519,-0.036 1.047,-0.018 1.566,0.063 -0.055,-0.773 -0.046,-1.556 0.027,-2.321 0,-0.119 0.009,-0.237 0.028,-0.355"
       style="fill:#ffd3a1;fill-opacity:1;fill-rule:nonzero;stroke:none;stroke-width:0.1"
       id="path1396" /><path
       d="m 213.278,145.971 c -0.355,-0.956 -1.211,-1.694 -2.313,-1.831 h -0.638 c -0.801,0 -8.888,0.911 -9.088,0.957 l -0.009,0.072 -0.073,0.884 -0.182,2.14 -0.018,0.173 3.388,0.391 4.68,0.884 1.129,0.236 c 0.884,0.11 1.731,-0.19 2.341,-0.746 0.11,-0.1 0.219,-0.21 0.31,-0.328 0.318,-0.391 0.537,-0.874 0.61,-1.402 l 0.009,-0.055 c 0.063,-0.482 0.009,-0.947 -0.146,-1.375"
       style="fill:#f59c93;fill-opacity:1;fill-rule:nonzero;stroke:none;stroke-width:0.1"
       id="path1398" /><path
       d="m 192.105,145.197 h -0.055 v 0 c -0.463,0.077 -0.732,0.331 -1.171,0.331 -0.028,0 -0.057,-0.001 -0.086,-0.003 -0.382,-0.036 -0.747,-0.164 -1.111,-0.265 -0.085,-0.023 -0.171,-0.044 -0.257,-0.063 h -3.101 l 0.08,0.974 v 0 c 0.388,0.011 0.777,0.016 1.166,0.016 1.314,0 2.626,-0.06 3.933,-0.18 0.137,-0.008 0.283,-0.027 0.419,-0.036 l -0.154,-0.155 c -0.128,-0.273 0.036,-0.583 0.337,-0.619 v 0"
       style="fill:#e8c093;fill-opacity:1;fill-rule:nonzero;stroke:none;stroke-width:0.1"
       id="path1400" /><path
       d="m 186.324,145.197 h -11.62 c -0.184,0.233 -0.329,0.494 -0.431,0.774 -0.106,0.292 -0.169,0.6 -0.169,0.92 0,0.09 0.004,0.181 0.014,0.273 0.939,-0.865 2.241,-1.366 3.525,-1.53 0.427,-0.052 0.855,-0.074 1.283,-0.074 1.37,0 2.742,0.222 4.108,0.375 0.656,0.072 1.312,0.127 1.967,0.163 0.465,0.037 0.938,0.055 1.403,0.073 l -0.08,-0.974"
       style="fill:#df8f87;fill-opacity:1;fill-rule:nonzero;stroke:none;stroke-width:0.1"
       id="path1402" /><path
       d="m 201.227,145.197 h -3.1 c -0.087,0.019 -0.172,0.04 -0.258,0.063 -0.373,0.101 -0.737,0.229 -1.111,0.265 -0.03,0.002 -0.059,0.003 -0.087,0.003 -0.447,0 -0.715,-0.254 -1.17,-0.331 v 0 h -3.396 v 0 c -0.301,0.036 -0.465,0.346 -0.337,0.619 l 0.154,0.155 v 0 c 0.607,-0.07 1.214,-0.134 1.827,-0.134 0.104,0 0.209,0.002 0.314,0.006 0.5,0.019 1.001,0.082 1.502,0.156 0.419,0.054 0.838,0.109 1.257,0.154 0.462,0.043 0.923,0.061 1.384,0.061 0.983,0 1.965,-0.08 2.951,-0.161 v 0 l 0.07,-0.856"
       style="fill:#e8c093;fill-opacity:1;fill-rule:nonzero;stroke:none;stroke-width:0.1"
       id="path1404" /><path
       d="m 212.844,145.197 h -11.617 l -0.07,0.856 c 0.474,-0.046 0.938,-0.082 1.411,-0.118 0.156,-0.019 0.301,-0.028 0.455,-0.037 0.789,-0.049 1.583,-0.074 2.377,-0.074 0.829,0 1.659,0.027 2.487,0.083 1.639,0.109 3.479,0.446 4.425,1.795 0.238,0.336 0.402,0.71 0.493,1.101 0.318,-0.391 0.537,-0.874 0.61,-1.402 l 0.009,-0.055 c 0.017,-0.132 0.026,-0.262 0.026,-0.391 0,-0.343 -0.06,-0.673 -0.172,-0.984 -0.104,-0.28 -0.251,-0.541 -0.434,-0.774"
       style="fill:#df8f87;fill-opacity:1;fill-rule:nonzero;stroke:none;stroke-width:0.1"
       id="path1406" /><path
       d="m 181.412,99.3621 h -0.974 v 2.6909 h 0.974 v -2.6909"
       style="fill:#3c3c3b;fill-opacity:1;fill-rule:nonzero;stroke:none;stroke-width:0.1"
       id="path1408" /><path
       d="m 183.586,98.1129 c 0,-1.0887 -0.832,-1.9707 -1.857,-1.9707 -1.026,0 -1.857,0.882 -1.857,1.9707 0,1.0883 0.831,1.9691 1.857,1.9691 1.025,0 1.857,-0.8808 1.857,-1.9691"
       style="fill:#141424;fill-opacity:1;fill-rule:nonzero;stroke:none;stroke-width:0.1"
       id="path1410" /><path
       d="m 194.741,99.3621 h -0.973 v 2.6909 h 0.973 v -2.6909"
       style="fill:#3c3c3b;fill-opacity:1;fill-rule:nonzero;stroke:none;stroke-width:0.1"
       id="path1412" /><path
       d="m 196.916,98.1129 c 0,-1.0887 -0.832,-1.9707 -1.858,-1.9707 -1.025,0 -1.857,0.882 -1.857,1.9707 0,1.0883 0.832,1.9691 1.857,1.9691 1.026,0 1.858,-0.8808 1.858,-1.9691"
       style="fill:#141424;fill-opacity:1;fill-rule:nonzero;stroke:none;stroke-width:0.1"
       id="path1414" /><path
       d="m 207.342,99.3621 h 0.974 v 2.6909 h -0.974 v -2.6909"
       style="fill:#3c3c3b;fill-opacity:1;fill-rule:nonzero;stroke:none;stroke-width:0.1"
       id="path1416" /><path
       d="m 205.168,98.1129 c 0,-1.0887 0.831,-1.9707 1.857,-1.9707 1.026,0 1.857,0.882 1.857,1.9707 0,1.0883 -0.831,1.9691 -1.857,1.9691 -1.026,0 -1.857,-0.8808 -1.857,-1.9691"
       style="fill:#141424;fill-opacity:1;fill-rule:nonzero;stroke:none;stroke-width:0.1"
       id="path1418" /><path
       d="m 192.759,111.094 h 3.34805 v 9.1207 H 192.759 Z"
       style="fill:#3c3c3b;fill-opacity:1;fill-rule:nonzero;stroke:none;stroke-width:0.1"
       id="path1420" /><path
       d="m 191.951,103.55 h 4.96484 v 9.12188 H 191.951 Z"
       style="fill:#9b8f87;fill-opacity:1;fill-rule:nonzero;stroke:none;stroke-width:0.1"
       id="path1422" /><path
       d="m 179.76,101.081 h 29.325 v 1.817 l -14.696,1.816 -14.629,-1.816 v -1.817"
       style="fill:#141424;fill-opacity:1;fill-rule:nonzero;stroke:none;stroke-width:0.1"
       id="path1424" /><path
       d="m 183.722,123.818 -0.806,-26.0379 -0.009,-0.1813 v -0.0097 l -0.01,-0.1801 -0.008,-0.1711 h 8.139 l 1.877,26.5801 h -9.183"
       style="fill:#305c78;fill-opacity:1;fill-rule:nonzero;stroke:none;stroke-width:0.1"
       id="path1426" /><path
       d="m 186.96,100.555 c -2.247,0 -4.066,-0.247 -4.066,-3.3159 h 8.133 c 0,3.2099 -1.82,3.3159 -4.067,3.3159"
       style="fill:#141424;fill-opacity:1;fill-rule:nonzero;stroke:none;stroke-width:0.1"
       id="path1428" /><path
       d="m 182.894,96.3211 h 8.13281 v 1.26992 H 182.894 Z"
       style="fill:#16191e;fill-opacity:1;fill-rule:nonzero;stroke:none;stroke-width:0.1"
       id="path1430" /><path
       d="m 191.029,97.2379 h -0.002 0.001 l 0.272,3.8431 v 0 l -0.271,-3.8431 m 0.502,7.1211 0.1,1.422 -0.1,-1.422 v 0"
       style="fill:#d9d9d9;fill-opacity:1;fill-rule:nonzero;stroke:none;stroke-width:0.1"
       id="path1432" /><path
       d="m 191.3,101.081 v 0 l 0.231,3.278 v 0 l -0.231,-3.278"
       style="fill:#11111f;fill-opacity:1;fill-rule:nonzero;stroke:none;stroke-width:0.1"
       id="path1434" /><path
       d="m 191.028,97.2379 h -0.001 v 0.3531 h -0.008 c -0.131,2.866 -1.897,2.964 -4.059,2.964 -0.144,0 -0.286,-0.001 -0.427,-0.004 1.981,2.227 3.225,5.054 3.495,8.086 l 0.514,5.041 h 1.646 l -0.557,-7.897 -0.1,-1.422 -0.231,-3.278 -0.272,-3.8431"
       style="fill:#294e66;fill-opacity:1;fill-rule:nonzero;stroke:none;stroke-width:0.1"
       id="path1436" /><path
       d="m 182.894,97.5898 h -0.002 l 0.002,0.0012 v -0.0012 m 0.008,0.0012 h -0.008 l 0.008,0.0051 c 0,-0.002 0,-0.0031 0,-0.0051"
       style="fill:#11111f;fill-opacity:1;fill-rule:nonzero;stroke:none;stroke-width:0.1"
       id="path1438" /><path
       d="m 191.019,97.591 h -8.117 c 0,0.002 0,0.0031 0,0.0051 h 0.001 l 0.814,0.5289 c 1.053,0.6879 1.998,1.5059 2.816,2.426 0.141,0.003 0.283,0.004 0.427,0.004 2.162,0 3.928,-0.098 4.059,-2.964"
       style="fill:#11111f;fill-opacity:1;fill-rule:nonzero;stroke:none;stroke-width:0.1"
       id="path1440" /><path
       d="m 191.027,97.2379 h -5.113 l -3.011,0.3519 h -0.009 v 0.0012 0 h 0.008 8.117 0.008 v -0.3531"
       style="fill:#13151a;fill-opacity:1;fill-rule:nonzero;stroke:none;stroke-width:0.1"
       id="path1442" /><path
       d="m 205.123,123.996 0.806,-26.039 0.009,-0.18 v -0.009 l 0.009,-0.1809 0.009,-0.1723 h -8.139 l -1.877,26.5812 h 9.183"
       style="fill:#305c78;fill-opacity:1;fill-rule:nonzero;stroke:none;stroke-width:0.1"
       id="path1444" /><path
       d="m 201.885,100.734 c 2.247,0 4.066,-0.248 4.066,-3.318 h -8.133 c 0,3.21 1.82,3.318 4.067,3.318"
       style="fill:#141424;fill-opacity:1;fill-rule:nonzero;stroke:none;stroke-width:0.1"
       id="path1446" /><path
       d="m 197.818,96.4988 h 8.1332 v 1.27031 h -8.1332 z"
       style="fill:#16191e;fill-opacity:1;fill-rule:nonzero;stroke:none;stroke-width:0.1"
       id="path1448" /><path
       d="m 197.817,97.416 h -0.002 l -0.258,3.665 h 0.001 l 0.259,-3.665 m -0.49,6.935 v 0 l -0.31,4.391 0.31,-4.391"
       style="fill:#d9d9d9;fill-opacity:1;fill-rule:nonzero;stroke:none;stroke-width:0.1"
       id="path1450" /><path
       d="m 197.558,101.081 h -0.001 l -0.23,3.27 v 0 l 0.231,-3.27"
       style="fill:#11111f;fill-opacity:1;fill-rule:nonzero;stroke:none;stroke-width:0.1"
       id="path1452" /><path
       d="m 197.818,97.416 h -0.001 l -0.259,3.665 -0.231,3.27 -0.31,4.391 -0.348,4.936 h 1.652 l 0.496,-4.863 c 0.27,-3.032 1.513,-5.858 3.494,-8.085 -0.14,0.003 -0.282,0.004 -0.426,0.004 -2.162,0 -3.928,-0.099 -4.059,-2.9649 h -0.008 v -0.3531 0"
       style="fill:#294e66;fill-opacity:1;fill-rule:nonzero;stroke:none;stroke-width:0.1"
       id="path1454" /><path
       d="m 205.953,97.7691 h -0.01 c -0.001,0.002 -0.001,0.0039 -0.001,0.0059 v 0 l 0.011,-0.0059"
       style="fill:#11111f;fill-opacity:1;fill-rule:nonzero;stroke:none;stroke-width:0.1"
       id="path1456" /><path
       d="m 205.943,97.7691 h -8.117 c 0.131,2.8659 1.897,2.9649 4.059,2.9649 0.144,0 0.286,-10e-4 0.426,-0.004 0.819,-0.9198 1.763,-1.7378 2.817,-2.4261 l 0.814,-0.5289 c 0,-0.002 0,-0.0039 0.001,-0.0059"
       style="fill:#11111f;fill-opacity:1;fill-rule:nonzero;stroke:none;stroke-width:0.1"
       id="path1458" /><path
       d="m 202.932,97.416 h -5.114 v 0.3531 h 8.133 -0.009 l -3.01,-0.3531"
       style="fill:#13151a;fill-opacity:1;fill-rule:nonzero;stroke:none;stroke-width:0.1"
       id="path1460" /><path
       d="m 157.541,94.457 h 2.77305 v 48.7008 H 157.541 Z"
       style="fill:#141424;fill-opacity:1;fill-rule:nonzero;stroke:none;stroke-width:0.1"
       id="path1468" /><path
       d="m 229.434,94.457 h 2.77188 v 48.7008 H 229.434 Z"
       style="fill:#141424;fill-opacity:1;fill-rule:nonzero;stroke:none;stroke-width:0.1"
       id="path1470" /><path
       d="m 152.176,113.678 h 84.9809 v 29.4797 H 152.176 Z"
       style="fill:#9b8f87;fill-opacity:1;fill-rule:nonzero;stroke:none;stroke-width:0.1"
       id="path1472" /><path
       d="m 148.485,143.055 h 92.3629 v 2.1418 H 148.485 Z"
       style="fill:#80766f;fill-opacity:1;fill-rule:nonzero;stroke:none;stroke-width:0.1"
       id="path1474" /><path
       d="m 234.385,93.0461 h 2.77188 v 50.1117 H 234.385 Z"
       style="fill:#141424;fill-opacity:1;fill-rule:nonzero;stroke:none;stroke-width:0.1"
       id="path1476" /><path
       d="m 152.176,134.889 h 82.209 v 8.16602 h -82.209 z"
       style="fill:#8e837c;fill-opacity:1;fill-rule:nonzero;stroke:none;stroke-width:0.1"
       id="path1478" /><path
       d="m 152.176,143.055 h 82.209 v 0.10273 h -82.209 z"
       style="fill:#766d66;fill-opacity:1;fill-rule:nonzero;stroke:none;stroke-width:0.1"
       id="path1480" /><path
       d="m 237.157,134.889 h -2.772 v 8.269 h 2.772 v -0.103 -8.166"
       style="fill:#151523;fill-opacity:1;fill-rule:nonzero;stroke:none;stroke-width:0.1"
       id="path1482" /><path
       d="m 152.176,93.0461 h 2.772 v 50.1119 h -2.772 V 93.0461"
       style="fill:#141424;fill-opacity:1;fill-rule:nonzero;stroke:none;stroke-width:0.1"
       id="path1484" /><path
       d="m 214.222,147.252 2.605,11.896 c 0.126,0.576 0.695,1.043 1.273,1.043 h 15.848 c 0.576,0 0.942,-0.467 0.816,-1.043 l -2.606,-11.896 c -0.127,-0.577 -0.696,-1.044 -1.272,-1.044 h -15.85 c -0.576,0 -0.941,0.467 -0.814,1.044"
       style="fill:#3c3c3b;fill-opacity:1;fill-rule:nonzero;stroke:none;stroke-width:0.1"
       id="path1486" /><path
       d="m 215.597,146.208 h 15.848 c 0.576,0 1.147,0.467 1.273,1.044 l 2.605,11.896 c 0.127,0.576 -0.238,1.043 -0.814,1.043 h -15.85 c -0.576,0 -1.145,-0.467 -1.272,-1.043 l -2.606,-11.896 c -0.126,-0.577 0.239,-1.044 0.816,-1.044"
       style="fill:#575756;fill-opacity:1;fill-rule:nonzero;stroke:none;stroke-width:0.1"
       id="path1488" /><path
       d="m 224.369,153.2 c -0.129,-0.591 0.245,-1.07 0.835,-1.07 0.591,0 1.174,0.479 1.304,1.07 0.129,0.59 -0.245,1.069 -0.835,1.069 -0.591,0 -1.174,-0.479 -1.304,-1.069"
       style="fill:#ffffff;fill-opacity:1;fill-rule:nonzero;stroke:none;stroke-width:0.1"
       id="path1490" /><path
       d="m 204.286,145.173 h 26.167 v 1.035 h -26.167 v -1.035"
       style="fill:#575756;fill-opacity:1;fill-rule:nonzero;stroke:none;stroke-width:0.1"
       id="path1492" /><path
       d="m 214.265,146.208 h 16.188 v -1.035 h -16.188 v 1.035"
       style="fill:#3c3c3b;fill-opacity:1;fill-rule:nonzero;stroke:none;stroke-width:0.1"
       id="path1494" /></g></svg>