<?xml version="1.0" encoding="UTF-8" standalone="no"?>
<svg
   xmlns:dc="http://purl.org/dc/elements/1.1/"
   xmlns:cc="http://creativecommons.org/ns#"
   xmlns:rdf="http://www.w3.org/1999/02/22-rdf-syntax-ns#"
   xmlns:svg="http://www.w3.org/2000/svg"
   xmlns="http://www.w3.org/2000/svg"
   viewBox="0 0 95.350388 105.44666"
   height="105.44666"
   width="95.350388"
   xml:space="preserve"
   id="svg6418"
   version="1.1"><metadata
     id="metadata6424"><rdf:RDF><cc:Work
         rdf:about=""><dc:format>image/svg+xml</dc:format><dc:type
           rdf:resource="http://purl.org/dc/dcmitype/StillImage" /><dc:title></dc:title></cc:Work></rdf:RDF></metadata><defs
     id="defs6422"><clipPath
       id="clipPath6436"
       clipPathUnits="userSpaceOnUse"><path
         id="path6434"
         d="M 5000,0 H 0 V 5000 H 5000 V 0 M 3392.84,757.711 v 0 h 991.95 v 406.579 0 c -19.52,214.73 -198.96,302.24 -291.65,333.35 -12.82,4.3 -26.1,6.42 -39.34,6.42 -20.43,0 -40.75,-5.05 -59.1,-14.95 L 3392.84,1164.29 V 757.711 m -450.23,0 v 0 h 83.43 c 0,98.269 -0.48,196.539 0.3,294.799 0.1,13.07 0.12,26.15 -0.09,39.22 -0.84,51.26 -5.26,102.33 -22.2,151.44 -49.98,158.02 -195.55,227.48 -275.94,254.47 -12.81,4.3 -26.1,6.42 -39.34,6.42 -20.43,0 -40.75,-5.05 -59.09,-14.95 l -119.38,-64.42 c 2.1,11.49 3.24,23.16 3.24,34.74 0,3.42 -0.09,6.83 -0.29,10.23 -0.57,9.61 -1.96,19.1 -4.26,28.3 v 0 c -0.01,0.06 -0.03,0.12 -0.04,0.19 -0.01,0.01 -0.01,0.03 -0.02,0.04 -0.01,0.06 -0.02,0.11 -0.04,0.17 0,0.01 0,0.02 -0.01,0.03 -0.03,0.13 -0.06,0.27 -0.1,0.4 0,0.01 0,0.01 0,0.02 -0.06,0.21 -0.11,0.41 -0.17,0.61 v 0.01 c -0.06,0.21 -0.11,0.41 -0.17,0.62 v 0 c -0.06,0.21 -0.11,0.41 -0.17,0.61 v 0.01 c -0.04,0.13 -0.08,0.27 -0.12,0.4 v 0.01 c -0.02,0.06 -0.04,0.12 -0.06,0.19 0,0 0,0.01 0,0.02 -0.04,0.13 -0.08,0.25 -0.12,0.38 0,0.01 0,0.02 -0.01,0.03 -0.01,0.06 -0.03,0.11 -0.05,0.16 0,0.02 0,0.03 -0.01,0.04 -0.02,0.06 -0.03,0.12 -0.05,0.18 0,0.01 -0.01,0.01 -0.01,0.02 -0.01,0.05 -0.03,0.11 -0.05,0.17 -0.01,0.01 -0.01,0.03 -0.02,0.05 -0.01,0.04 -0.02,0.09 -0.04,0.13 0,0.02 -0.01,0.04 -0.01,0.06 -0.02,0.05 -0.04,0.11 -0.06,0.16 0,0.03 -0.01,0.05 -0.02,0.07 -0.01,0.04 -0.02,0.07 -0.03,0.1 -0.01,0.03 -0.02,0.07 -0.03,0.1 -0.01,0.02 -0.02,0.04 -0.02,0.07 -0.04,0.12 -0.08,0.25 -0.13,0.38 0,0 0,0.01 0,0.02 -10.43,31.89 -37.28,41.72 -68.14,41.72 -25.61,0 -53.97,-6.76 -78.05,-13.3 -11.2,-3.05 -21.48,-6.04 -30.1,-8.29 -39.56,-9.89 -92.77,-34.97 -85.69,-84.04 0.34,-2.39 0.83,-4.76 1.41,-7.1 10.79,-43.15 42.33,-82.46 78.33,-107.62 l -296.22,-159.87 c -15.86,-7.89 -25.89,-23.69 -30.52,-41.63 -4.64,-17.94 -5.82,-36.11 0.65,-53.7 0.96,-2.63 2.42,-5.01 4.08,-7.27 7.7,-8.7 15.95,-13.25 24.63,-14.78 V 757.711 h 914.8 m -2365.551,0 v 0 h 991.951 v 406.579 0 c -19.51,214.73 -198.96,302.24 -291.65,333.35 -12.81,4.3 -26.1,6.42 -39.34,6.42 -20.43,0 -40.75,-5.05 -59.09,-14.95 L 577.059,1164.29 V 757.711 M 3738.12,2222.7 l 6.92,-21.81 c 3.37,-10.62 12.32,-18.4 23.14,-20.03 35.08,-5.28 119.71,-15.96 230.06,-15.96 110.34,0 194.97,10.68 230.06,15.96 10.81,1.63 19.76,9.41 23.13,20.03 l 91.17,287.26 c 0.63,1.97 0.92,3.94 0.93,5.87 0.04,10.42 -8.39,19.56 -19.54,19.56 h -0.17 c 1.86,12.11 2.72,23.43 2.72,33.98 0.03,125.13 -120.66,143.93 -120.66,143.93 v 0 c 24.96,189.91 -194.99,263.9 -196.07,264.26 v 0 0 0 0 0 c 45.89,-59.67 -66.75,-102.3 -66.75,-102.3 -191.89,-48.3 -137.66,-156.28 -137.66,-156.28 -177.35,-44.38 -134.89,-155.06 -120.54,-183.59 h -12.38 c -13.21,0 -22.6,-12.84 -18.61,-25.43 l 84.25,-265.45 v 0 m -1009.64,0 6.92,-21.81 c 3.37,-10.62 12.31,-18.4 23.13,-20.03 35.09,-5.28 119.72,-15.96 230.06,-15.96 110.35,0 194.98,10.68 230.06,15.96 10.82,1.63 19.77,9.41 23.14,20.03 l 91.17,287.26 c 0.62,1.97 0.92,3.94 0.93,5.87 0.03,10.42 -8.4,19.56 -19.54,19.56 h -0.18 c 1.87,12.11 2.73,23.43 2.73,33.98 0.02,125.13 -120.67,143.93 -120.67,143.93 v 0 c 24.97,189.91 -194.99,263.9 -196.06,264.26 v 0 c -0.01,0 -0.01,0 -0.01,0 v 0 0 0 c 45.89,-59.67 -66.74,-102.3 -66.74,-102.3 -191.9,-48.3 -137.67,-156.28 -137.67,-156.28 -177.35,-44.38 -134.88,-155.06 -120.53,-183.59 h -12.39 c -13.2,0 -22.6,-12.84 -18.6,-25.43 l 84.25,-265.45 v 0 m -1014.27,-21.81 v 0 c 3.38,-10.62 12.32,-18.4 23.14,-20.03 35.08,-5.28 119.71,-15.96 230.06,-15.96 110.34,0 194.97,10.68 230.06,15.96 10.82,1.63 19.76,9.41 23.13,20.03 l 91.17,287.26 c 0.63,1.97 0.93,3.94 0.93,5.87 0.04,10.42 -8.39,19.56 -19.53,19.56 h -0.18 c 1.86,12.11 2.72,23.43 2.72,33.98 0.03,125.13 -120.66,143.93 -120.66,143.93 v 0 c 24.97,189.91 -194.99,263.9 -196.07,264.26 v 0 0 0 0 0 0 c 2.9,-3.77 5.16,-7.47 6.86,-11.1 l 0.01,-0.01 c 25.23,-53.79 -73.62,-91.19 -73.62,-91.19 -191.89,-48.3 -137.66,-156.28 -137.66,-156.28 -177.35,-44.38 -134.88,-155.06 -120.53,-183.59 h -12.39 c -13.21,0 -22.6,-12.84 -18.61,-25.43 l 91.17,-287.26 m -1020.515,0 v 0 c 3.371,-10.62 12.317,-18.4 23.133,-20.03 35.086,-5.28 119.719,-15.96 230.063,-15.96 110.349,0 194.979,10.68 230.059,15.96 10.82,1.63 19.76,9.41 23.14,20.03 l 91.17,287.26 c 0.62,1.97 0.92,3.94 0.92,5.87 0.04,10.42 -8.39,19.56 -19.53,19.56 h -0.18 c 1.86,12.11 2.73,23.43 2.73,33.98 0.02,125.13 -120.67,143.93 -120.67,143.93 v 0 c 24.97,189.91 -194.991,263.9 -196.065,264.26 v 0 h -0.004 v 0 0 0 c 45.889,-59.67 -66.746,-102.3 -66.746,-102.3 -39.059,-9.83 -67.93,-22.14 -89.125,-35.5 -1.727,3.49 -3.606,6.9 -5.649,10.18 -1.031,1.66 -2.132,3.27 -3.324,4.81 -10.039,12.99 -23.422,17.83 -37.652,17.83 -20.485,0 -42.723,-10.04 -59.219,-20.29 -6.152,-3.75 -13.66,-8.02 -21.723,-12.8 -38.668,-22.96 -90.015,-57.73 -64.761,-102.36 0.008,-0.02 0.011,-0.03 0.019,-0.04 0.016,-0.03 0.032,-0.05 0.043,-0.08 0.012,-0.01 0.02,-0.03 0.028,-0.04 0.011,-0.03 0.027,-0.05 0.039,-0.07 0.011,-0.02 0.023,-0.04 0.035,-0.06 0.012,-0.02 0.023,-0.04 0.035,-0.06 0.023,-0.04 0.043,-0.08 0.066,-0.12 0.008,-0.01 0.016,-0.03 0.024,-0.04 0.015,-0.03 0.031,-0.06 0.047,-0.08 0.007,-0.02 0.019,-0.03 0.031,-0.05 0.016,-0.03 0.027,-0.05 0.043,-0.08 0.008,-0.01 0.019,-0.03 0.023,-0.04 0.02,-0.03 0.035,-0.06 0.055,-0.09 0.008,-0.01 0.016,-0.03 0.02,-0.04 0.074,-0.12 0.152,-0.25 0.226,-0.38 0.004,-0.01 0.008,-0.01 0.012,-0.02 0.019,-0.04 0.043,-0.07 0.062,-0.1 0.008,-0.01 0.012,-0.02 0.02,-0.03 0.019,-0.04 0.043,-0.08 0.062,-0.11 0.004,-0.01 0.008,-0.01 0.012,-0.02 0.051,-0.09 0.106,-0.17 0.156,-0.26 0.004,0 0.004,0 0.004,-0.01 0.024,-0.03 0.047,-0.07 0.071,-0.11 0.007,-0.01 0.011,-0.02 0.019,-0.03 0.024,-0.04 0.039,-0.07 0.063,-0.1 0.007,-0.01 0.011,-0.02 0.019,-0.03 0.02,-0.03 0.039,-0.07 0.059,-0.1 0.008,-0.01 0.011,-0.02 0.019,-0.03 0.028,-0.04 0.051,-0.09 0.078,-0.13 13.403,-21.56 34.309,-39.09 57.387,-51.2 -75.711,-51.89 -46.851,-125.66 -35.519,-148.19 h -12.387 c -13.207,0 -22.606,-12.84 -18.61,-25.43 l 91.172,-287.26 M 625.09,3540.93 c 0,-0.01 0,-0.01 0,-0.01 h 931.81 l 4.92,73.76 v 0 l 3.89,58.33 v 0 l 3.51,52.61 v 0 l 1.21,18.23 19.67,294.82 0.31,4.75 H 584.867 C 571.5,3912.73 624.77,3543.14 625.09,3540.93 m 2798.18,17.3 c 0,-0.01 0,-0.01 0,-0.01 h 931.81 l 14.8,272.2 2.03,37.47 16.37,301.23 0.32,5.84 H 3383.05 c -13.36,-160.41 39.9,-614.02 40.22,-616.73 m -1367.9,0 c 0,-0.01 0,-0.01 0,-0.01 h 931.81 l 6.78,124.79 c 12.12,14.15 6.05,42.84 3.29,60.47 l 9.31,171.27 c 13.77,14.97 6.15,47.17 3.54,65.2 l 10.28,189.17 0.32,5.84 H 2015.15 c -3.88,-46.6 -2.14,-117.95 2.29,-195.79 -2.93,0.5 -4.44,0.78 -4.44,0.78 0,0 -16.98,-84.39 10.47,-90.95 3.76,-49.88 8.14,-99.6 12.43,-144.77 -6.39,1.06 -9.7,1.66 -9.7,1.66 0,0 -16.54,-82.16 10.19,-88.54 2.05,-0.49 4.05,-0.71 6.01,-0.71 0.74,0 1.47,0.03 2.2,0.1 6.11,-58.77 10.68,-97.72 10.77,-98.51" /></clipPath><radialGradient
       id="radialGradient6442"
       spreadMethod="pad"
       gradientTransform="matrix(2906.62,0,0,-2906.62,2500,2500)"
       gradientUnits="userSpaceOnUse"
       r="1"
       cy="0"
       cx="0"
       fy="0"
       fx="0"><stop
         id="stop6438"
         offset="0"
         style="stop-opacity:1;stop-color:#ffffff" /><stop
         id="stop6440"
         offset="1"
         style="stop-opacity:1;stop-color:#f8f5f1" /></radialGradient><clipPath
       id="clipPath6462"
       clipPathUnits="userSpaceOnUse"><path
         id="path6460"
         d="m 4355.08,3558.22 h -931.81 c 0,0 0,0 0,0.01 0,-0.01 0,-0.01 0,-0.01 h 931.81 l 13.84,254.6 0.96,17.6 -14.8,-272.2" /></clipPath><radialGradient
       id="radialGradient6468"
       spreadMethod="pad"
       gradientTransform="matrix(2906.62,0,0,-2906.62,2500,2500)"
       gradientUnits="userSpaceOnUse"
       r="1"
       cy="0"
       cx="0"
       fy="0"
       fx="0"><stop
         id="stop6464"
         offset="0"
         style="stop-opacity:1;stop-color:#eaecee" /><stop
         id="stop6466"
         offset="1"
         style="stop-opacity:1;stop-color:#e4e2e0" /></radialGradient><clipPath
       id="clipPath6480"
       clipPathUnits="userSpaceOnUse"><path
         id="path6478"
         d="m 4371.91,3867.89 v 0 l 16.37,301.23 v 0 l -16.37,-301.23" /></clipPath><radialGradient
       id="radialGradient6486"
       spreadMethod="pad"
       gradientTransform="matrix(2906.62,0,0,-2906.62,2500,2500)"
       gradientUnits="userSpaceOnUse"
       r="1"
       cy="0"
       cx="0"
       fy="0"
       fx="0"><stop
         id="stop6482"
         offset="0"
         style="stop-opacity:1;stop-color:#eaecee" /><stop
         id="stop6484"
         offset="1"
         style="stop-opacity:1;stop-color:#e4e2e0" /></radialGradient><clipPath
       id="clipPath6564"
       clipPathUnits="userSpaceOnUse"><path
         id="path6562"
         d="m 669.039,2661.77 c -23.078,12.11 -43.984,29.64 -57.387,51.2 -0.027,0.04 -0.05,0.09 -0.078,0.13 0.028,-0.04 0.051,-0.09 0.078,-0.13 13.403,-21.56 34.309,-39.09 57.387,-51.2 v 0 m -57.484,51.36 c -0.02,0.03 -0.039,0.07 -0.059,0.1 0.02,-0.03 0.039,-0.07 0.059,-0.1 m -0.078,0.13 c -0.024,0.03 -0.039,0.06 -0.063,0.1 0.024,-0.04 0.039,-0.07 0.063,-0.1 m -0.082,0.13 c -0.024,0.04 -0.047,0.08 -0.071,0.11 0.024,-0.03 0.051,-0.08 0.071,-0.11 m -0.075,0.12 c -0.05,0.09 -0.105,0.17 -0.156,0.26 0.051,-0.09 0.106,-0.17 0.156,-0.26 m -0.168,0.28 c -0.019,0.03 -0.043,0.07 -0.062,0.11 0.019,-0.04 0.043,-0.08 0.062,-0.11 m -0.082,0.14 c -0.019,0.03 -0.043,0.06 -0.062,0.1 0.019,-0.03 0.043,-0.07 0.062,-0.1 m -0.074,0.12 c -0.074,0.13 -0.152,0.26 -0.226,0.38 0.074,-0.12 0.148,-0.25 0.226,-0.38 m -0.246,0.42 c -0.02,0.03 -0.035,0.06 -0.055,0.09 0.02,-0.03 0.035,-0.06 0.055,-0.09 m -0.078,0.13 c -0.016,0.03 -0.027,0.05 -0.043,0.08 0.016,-0.03 0.027,-0.05 0.043,-0.08 m -0.074,0.13 c -0.016,0.02 -0.032,0.05 -0.047,0.08 0.015,-0.03 0.031,-0.05 0.047,-0.08 m -0.071,0.12 c -0.023,0.04 -0.043,0.08 -0.066,0.12 0.023,-0.04 0.043,-0.08 0.066,-0.12 m -0.101,0.18 c -0.012,0.02 -0.024,0.04 -0.035,0.06 0.011,-0.02 0.023,-0.04 0.035,-0.06 m -0.074,0.13 c -0.008,0.01 -0.016,0.03 -0.028,0.04 0.012,-0.01 0.02,-0.03 0.028,-0.04 m -0.071,0.12 c -0.008,0.01 -0.011,0.02 -0.019,0.04 0.008,-0.02 0.011,-0.03 0.019,-0.04" /></clipPath><radialGradient
       id="radialGradient6570"
       spreadMethod="pad"
       gradientTransform="matrix(2906.62,0,0,-2906.62,2500,2500)"
       gradientUnits="userSpaceOnUse"
       r="1"
       cy="0"
       cx="0"
       fy="0"
       fx="0"><stop
         id="stop6566"
         offset="0"
         style="stop-opacity:1;stop-color:#eaecee" /><stop
         id="stop6568"
         offset="1"
         style="stop-opacity:1;stop-color:#e4e2e0" /></radialGradient><clipPath
       id="clipPath6622"
       clipPathUnits="userSpaceOnUse"><path
         id="path6620"
         d="m 2513.54,1459.43 c 0,3.42 -0.09,6.83 -0.29,10.23 0.2,-3.4 0.29,-6.81 0.29,-10.23 m -4.55,38.53 c -0.01,0.06 -0.03,0.12 -0.04,0.19 0.01,-0.07 0.03,-0.13 0.04,-0.19 m -0.06,0.23 c -0.01,0.06 -0.02,0.11 -0.04,0.17 0.02,-0.06 0.03,-0.11 0.04,-0.17 m -0.05,0.2 c -0.03,0.13 -0.06,0.27 -0.1,0.4 0.04,-0.13 0.07,-0.27 0.1,-0.4 m -0.1,0.42 c -0.06,0.21 -0.11,0.41 -0.17,0.61 0.06,-0.2 0.11,-0.4 0.17,-0.61 m -0.17,0.62 c -0.06,0.21 -0.11,0.41 -0.17,0.62 0.06,-0.21 0.11,-0.41 0.17,-0.62 m -0.17,0.62 c -0.06,0.21 -0.11,0.41 -0.17,0.61 0.06,-0.2 0.11,-0.4 0.17,-0.61 m -0.17,0.62 c -0.04,0.14 -0.08,0.27 -0.12,0.4 0.04,-0.13 0.08,-0.27 0.12,-0.4 m -0.12,0.41 c -0.02,0.06 -0.04,0.12 -0.06,0.19 0.02,-0.07 0.04,-0.13 0.06,-0.19 m -0.06,0.21 c -0.04,0.12 -0.08,0.26 -0.12,0.38 0.04,-0.13 0.08,-0.25 0.12,-0.38 m -0.13,0.41 c -0.01,0.05 -0.03,0.11 -0.05,0.16 0.02,-0.05 0.04,-0.1 0.05,-0.16 m -0.06,0.2 c -0.02,0.06 -0.03,0.12 -0.05,0.18 0.02,-0.06 0.03,-0.12 0.05,-0.18 m -0.06,0.2 c -0.01,0.05 -0.03,0.11 -0.05,0.17 0.02,-0.06 0.04,-0.12 0.05,-0.17 m -0.07,0.22 c -0.01,0.04 -0.02,0.08 -0.04,0.13 0.02,-0.04 0.03,-0.09 0.04,-0.13 m -0.05,0.19 c -0.02,0.05 -0.04,0.11 -0.06,0.16 0.02,-0.05 0.04,-0.11 0.06,-0.16 m -0.08,0.23 c -0.01,0.04 -0.02,0.07 -0.03,0.1 0.01,-0.03 0.02,-0.06 0.03,-0.1 m -0.06,0.2 c -0.01,0.02 -0.01,0.04 -0.02,0.07 0,-0.03 0.01,-0.05 0.02,-0.07 m -0.15,0.45 c 0,0 0,0.01 0,0.02 0,-0.01 0,-0.02 0,-0.02" /></clipPath><radialGradient
       id="radialGradient6628"
       spreadMethod="pad"
       gradientTransform="matrix(2906.62,0,0,-2906.62,2500,2500)"
       gradientUnits="userSpaceOnUse"
       r="1"
       cy="0"
       cx="0"
       fy="0"
       fx="0"><stop
         id="stop6624"
         offset="0"
         style="stop-opacity:1;stop-color:#eaecee" /><stop
         id="stop6626"
         offset="1"
         style="stop-opacity:1;stop-color:#e4e2e0" /></radialGradient><clipPath
       id="clipPath6798"
       clipPathUnits="userSpaceOnUse"><path
         id="path6796"
         d="m 2987.18,3558.22 h -931.81 c 0,0 0,0 0,0.01 0,-0.01 0,-0.01 0,-0.01 h 931.81 l 6.78,124.79 v 0 l -6.78,-124.79" /></clipPath><radialGradient
       id="radialGradient6804"
       spreadMethod="pad"
       gradientTransform="matrix(2906.62,0,0,-2906.62,2500,2500)"
       gradientUnits="userSpaceOnUse"
       r="1"
       cy="0"
       cx="0"
       fy="0"
       fx="0"><stop
         id="stop6800"
         offset="0"
         style="stop-opacity:1;stop-color:#eaecee" /><stop
         id="stop6802"
         offset="1"
         style="stop-opacity:1;stop-color:#e4e2e0" /></radialGradient><clipPath
       id="clipPath6816"
       clipPathUnits="userSpaceOnUse"><path
         id="path6814"
         d="m 2997.25,3743.48 v 0 l 9.31,171.26 v 0.01 l -9.31,-171.27 m 12.85,236.47 v 0 l 10.28,189.17 v 0 l -10.28,-189.17" /></clipPath><radialGradient
       id="radialGradient6822"
       spreadMethod="pad"
       gradientTransform="matrix(2906.62,0,0,-2906.62,2500,2500)"
       gradientUnits="userSpaceOnUse"
       r="1"
       cy="0"
       cx="0"
       fy="0"
       fx="0"><stop
         id="stop6818"
         offset="0"
         style="stop-opacity:1;stop-color:#eaecee" /><stop
         id="stop6820"
         offset="1"
         style="stop-opacity:1;stop-color:#e4e2e0" /></radialGradient><clipPath
       id="clipPath7126"
       clipPathUnits="userSpaceOnUse"><path
         id="path7124"
         d="M 1556.9,3540.92 H 625.09 c 0,0 0,0 0,0.01 0,-0.01 0,-0.01 0,-0.01 h 931.81 l 4.92,73.76 v 0 l -4.92,-73.76" /></clipPath><radialGradient
       id="radialGradient7132"
       spreadMethod="pad"
       gradientTransform="matrix(2906.62,0,0,-2906.62,2500,2500)"
       gradientUnits="userSpaceOnUse"
       r="1"
       cy="0"
       cx="0"
       fy="0"
       fx="0"><stop
         id="stop7128"
         offset="0"
         style="stop-opacity:1;stop-color:#eaecee" /><stop
         id="stop7130"
         offset="1"
         style="stop-opacity:1;stop-color:#e4e2e0" /></radialGradient><clipPath
       id="clipPath7144"
       clipPathUnits="userSpaceOnUse"><path
         id="path7142"
         d="m 1565.71,3673.01 v 0 l 3.51,52.61 v 0 l -3.51,-52.61 m 4.72,70.84 0.99,14.87 18.68,279.95 v 0 l -19.67,-294.82" /></clipPath><radialGradient
       id="radialGradient7150"
       spreadMethod="pad"
       gradientTransform="matrix(2906.62,0,0,-2906.62,2500,2500)"
       gradientUnits="userSpaceOnUse"
       r="1"
       cy="0"
       cx="0"
       fy="0"
       fx="0"><stop
         id="stop7146"
         offset="0"
         style="stop-opacity:1;stop-color:#eaecee" /><stop
         id="stop7148"
         offset="1"
         style="stop-opacity:1;stop-color:#e4e2e0" /></radialGradient></defs><g
     transform="matrix(1.3333333,0,0,-1.3333333,-76.941198,394.09999)"
     id="g6426"><path
       d="m 115.453,269.149 c 2.503,19.038 -19.6069,26.426 -19.6069,26.426 4.5889,-5.967 -6.6746,-10.23 -6.6746,-10.23 C 69.982,280.515 75.4051,269.717 75.4051,269.717 54.9641,264.602 63.7246,250.678 63.7246,250.678 h 63.4094 c 2.92,16.197 -11.681,18.471 -11.681,18.471"
       style="fill:#f1e5b6;fill-opacity:1;fill-rule:nonzero;stroke:none;stroke-width:0.1"
       id="path6520" /><path
       d="m 115.453,269.149 c 0.027,0.207 0.036,0.406 0.057,0.611 1.95,18.58 -19.6639,25.815 -19.6639,25.815 0,0 18.2719,-15.659 10.0759,-27.759 0,0 -1.33,-1.984 -3.148,-3.448 -4.3635,-0.881 -9.7775,-1.188 -16.1467,-0.061 0,0 9.0532,-4.971 18.2737,-4.755 1.021,-1.368 1.549,-3.355 -0.817,-5.621 -15.2317,-0.915 -42.1957,0.02 -42.1957,4.132 v 0 c -0.2711,-4.024 1.8363,-7.385 1.8363,-7.385 h 63.4094 c 2.92,16.197 -11.681,18.471 -11.681,18.471"
       style="fill:#e8c798;fill-opacity:1;fill-rule:nonzero;stroke:none;stroke-width:0.1"
       id="path6522" /><path
       d="M 127.265,251.358 H 62.1133 c -1.3207,0 -2.2606,-1.284 -1.861,-2.543 l 9.1172,-28.726 c 0.3371,-1.062 1.2317,-1.84 2.3133,-2.003 3.5086,-0.528 11.9719,-1.596 23.0063,-1.596 11.0349,0 19.4979,1.068 23.0059,1.596 1.082,0.163 1.976,0.941 2.314,2.003 l 9.117,28.726 c 0.399,1.259 -0.54,2.543 -1.861,2.543"
       style="fill:#edbe2c;fill-opacity:1;fill-rule:nonzero;stroke:none;stroke-width:0.1"
       id="path6524" /><path
       d="m 83.3879,221.3 -12.0793,23.373 h 6.8707 L 83.3879,221.3"
       style="fill:#e5a81e;fill-opacity:1;fill-rule:nonzero;stroke:none;stroke-width:0.1"
       id="path6526" /><path
       d="m 105.922,221.3 12.079,23.373 H 111.13 L 105.922,221.3"
       style="fill:#e5a81e;fill-opacity:1;fill-rule:nonzero;stroke:none;stroke-width:0.1"
       id="path6528" /><path
       d="m 94.5438,221.3 5.098,23.373 H 91.441 L 94.5438,221.3"
       style="fill:#e5a81e;fill-opacity:1;fill-rule:nonzero;stroke:none;stroke-width:0.1"
       id="path6530" /><path
       d="m 94.6891,216.49 c -11.0344,0 -19.4977,1.068 -23.0063,1.596 -1.0816,0.163 -1.9762,0.941 -2.3133,2.003 v 0 l -0.6922,2.181 c 4.9165,-0.927 9.4192,-1.343 13.5457,-1.343 4.4977,0 8.5481,0.495 12.1891,1.364 l 0.1317,-0.991 0.2355,1.08 c 4.9055,1.213 9.0627,3.105 12.5807,5.373 l -1.438,-6.453 4.442,8.595 c 9.28,7.29 13.247,17.062 14.642,21.463 h 2.259 c 1.114,0 1.957,-0.914 1.953,-1.956 0,-0.193 -0.03,-0.39 -0.092,-0.587 l -9.117,-28.726 c -0.338,-1.062 -1.232,-1.84 -2.314,-2.003 -3.508,-0.528 -11.971,-1.596 -23.0059,-1.596"
       style="fill:#dcb22f;fill-opacity:1;fill-rule:nonzero;stroke:none;stroke-width:0.1"
       id="path6532" /><path
       d="m 105.922,221.3 1.438,6.453 c 1.058,0.683 2.058,1.4 3.004,2.142 l -4.442,-8.595"
       style="fill:#d59e23;fill-opacity:1;fill-rule:nonzero;stroke:none;stroke-width:0.1"
       id="path6534" /><path
       d="m 94.5438,221.3 -0.1317,0.991 c 0.1238,0.029 0.2445,0.058 0.3672,0.089 l -0.2355,-1.08"
       style="fill:#d59e23;fill-opacity:1;fill-rule:nonzero;stroke:none;stroke-width:0.1"
       id="path6536" /><path
       d="m 62.5742,288.96 c 0,0 8.7891,-3.144 5.4477,-8.765 -6.5192,-0.508 -5.4477,8.765 -5.4477,8.765"
       style="fill:#bfd546;fill-opacity:1;fill-rule:nonzero;stroke:none;stroke-width:0.1"
       id="path6538" /><path
       d="m 57.7059,279.903 c 0,0 7.1425,6.009 10.316,0.292 -2.8446,-5.888 -10.316,-0.292 -10.316,-0.292"
       style="fill:#bfd546;fill-opacity:1;fill-rule:nonzero;stroke:none;stroke-width:0.1"
       id="path6540" /><path
       d="m 73.2605,289.086 c 0,0 1.2907,-9.245 -5.2386,-8.891 -3.4735,5.54 5.2386,8.891 5.2386,8.891"
       style="fill:#bfd546;fill-opacity:1;fill-rule:nonzero;stroke:none;stroke-width:0.1"
       id="path6542" /><path
       d="m 67.5023,281.768 c 0.8063,0.478 1.5571,0.905 2.1723,1.28 2.7957,1.737 7.2391,3.413 9.6871,0.246 0.1192,-0.154 0.2293,-0.315 0.3324,-0.481 3.5664,-5.738 2.2196,-14.972 -1.9336,-17.553 -4.1531,-2.581 -13.0289,0.299 -16.5953,6.037 -2.8441,4.576 2.4032,8.135 6.3371,10.471"
       style="fill:#f28d9c;fill-opacity:1;fill-rule:nonzero;stroke:none;stroke-width:0.1"
       id="path6544" /><path
       d="m 75.318,280.801 c 0.1008,-0.695 0.464,-1.218 0.8113,-1.167 0.3477,0.05 0.5477,0.654 0.4469,1.349 -0.1004,0.695 -0.4637,1.217 -0.8114,1.167 -0.3472,-0.05 -0.5472,-0.654 -0.4468,-1.349"
       style="fill:#efdc55;fill-opacity:1;fill-rule:nonzero;stroke:none;stroke-width:0.1"
       id="path6546" /><path
       d="m 69.6414,276.977 c 0.4238,-0.559 0.9941,-0.841 1.2742,-0.63 0.2797,0.212 0.1633,0.838 -0.2605,1.398 -0.4238,0.56 -0.9942,0.842 -1.2742,0.63 -0.2797,-0.212 -0.1633,-0.838 0.2605,-1.398"
       style="fill:#efdc55;fill-opacity:1;fill-rule:nonzero;stroke:none;stroke-width:0.1"
       id="path6548" /><path
       d="m 64.4473,273.822 c 0.6488,-0.269 1.2836,-0.224 1.4179,0.1 0.1344,0.324 -0.2828,0.805 -0.9312,1.074 -0.6488,0.269 -1.2836,0.224 -1.418,-0.101 -0.1344,-0.324 0.2828,-0.805 0.9313,-1.073"
       style="fill:#efdc55;fill-opacity:1;fill-rule:nonzero;stroke:none;stroke-width:0.1"
       id="path6550" /><path
       d="m 69.5594,271.126 c 0.348,-0.61 0.8773,-0.963 1.1824,-0.789 0.3047,0.174 0.2699,0.809 -0.0781,1.419 -0.3481,0.61 -0.8774,0.963 -1.1821,0.789 -0.305,-0.174 -0.2703,-0.809 0.0778,-1.419"
       style="fill:#efdc55;fill-opacity:1;fill-rule:nonzero;stroke:none;stroke-width:0.1"
       id="path6552" /><path
       d="m 74.6215,268.323 c 0.5187,-0.473 1.1312,-0.646 1.3676,-0.387 0.2367,0.26 0.0082,0.853 -0.5106,1.327 -0.5187,0.473 -1.1312,0.646 -1.3676,0.387 -0.2367,-0.26 -0.0082,-0.853 0.5106,-1.327"
       style="fill:#efdc55;fill-opacity:1;fill-rule:nonzero;stroke:none;stroke-width:0.1"
       id="path6554" /><path
       d="m 75.5277,273.936 c 0.4539,-0.535 1.0395,-0.785 1.3071,-0.558 0.2675,0.227 0.1164,0.845 -0.3375,1.38 -0.4543,0.536 -1.0399,0.786 -1.3075,0.559 -0.2675,-0.227 -0.1164,-0.845 0.3379,-1.381"
       style="fill:#efdc55;fill-opacity:1;fill-rule:nonzero;stroke:none;stroke-width:0.1"
       id="path6556" /><g
       transform="scale(0.1)"
       id="g6558"><g
         id="g6560"
         clip-path="url(#clipPath6564)"><path
           d="m 669.039,2661.77 c -23.078,12.11 -43.984,29.64 -57.387,51.2 -0.027,0.04 -0.05,0.09 -0.078,0.13 0.028,-0.04 0.051,-0.09 0.078,-0.13 13.403,-21.56 34.309,-39.09 57.387,-51.2 v 0 m -57.484,51.36 c -0.02,0.03 -0.039,0.07 -0.059,0.1 0.02,-0.03 0.039,-0.07 0.059,-0.1 m -0.078,0.13 c -0.024,0.03 -0.039,0.06 -0.063,0.1 0.024,-0.04 0.039,-0.07 0.063,-0.1 m -0.082,0.13 c -0.024,0.04 -0.047,0.08 -0.071,0.11 0.024,-0.03 0.051,-0.08 0.071,-0.11 m -0.075,0.12 c -0.05,0.09 -0.105,0.17 -0.156,0.26 0.051,-0.09 0.106,-0.17 0.156,-0.26 m -0.168,0.28 c -0.019,0.03 -0.043,0.07 -0.062,0.11 0.019,-0.04 0.043,-0.08 0.062,-0.11 m -0.082,0.14 c -0.019,0.03 -0.043,0.06 -0.062,0.1 0.019,-0.03 0.043,-0.07 0.062,-0.1 m -0.074,0.12 c -0.074,0.13 -0.152,0.26 -0.226,0.38 0.074,-0.12 0.148,-0.25 0.226,-0.38 m -0.246,0.42 c -0.02,0.03 -0.035,0.06 -0.055,0.09 0.02,-0.03 0.035,-0.06 0.055,-0.09 m -0.078,0.13 c -0.016,0.03 -0.027,0.05 -0.043,0.08 0.016,-0.03 0.027,-0.05 0.043,-0.08 m -0.074,0.13 c -0.016,0.02 -0.032,0.05 -0.047,0.08 0.015,-0.03 0.031,-0.05 0.047,-0.08 m -0.071,0.12 c -0.023,0.04 -0.043,0.08 -0.066,0.12 0.023,-0.04 0.043,-0.08 0.066,-0.12 m -0.101,0.18 c -0.012,0.02 -0.024,0.04 -0.035,0.06 0.011,-0.02 0.023,-0.04 0.035,-0.06 m -0.074,0.13 c -0.008,0.01 -0.016,0.03 -0.028,0.04 0.012,-0.01 0.02,-0.03 0.028,-0.04 m -0.071,0.12 c -0.008,0.01 -0.011,0.02 -0.019,0.04 0.008,-0.02 0.011,-0.03 0.019,-0.04"
           style="fill:url(#radialGradient6570);fill-opacity:1;fill-rule:nonzero;stroke:none"
           id="path6572" /></g></g><path
       d="m 77.7754,265.269 c 0.0016,10e-4 0.0023,0.002 0.0039,0.003 -0.0016,-10e-4 -0.0027,-0.002 -0.0039,-0.003 m 0.0156,0.01 c 0.0012,10e-4 0.0024,0.002 0.0035,0.002 -0.0011,0 -0.0023,-0.001 -0.0035,-0.002 m 0.0336,0.021 c 0.0012,10e-4 0.002,0.002 0.0031,0.003 -0.0011,-10e-4 -0.0019,-0.002 -0.0031,-0.003 m 0.0168,0.011 c 8e-4,0.001 8e-4,0.001 0.0012,0.001 -4e-4,0 -4e-4,0 -0.0012,-0.001 m 0.0324,0.022 c 8e-4,0 0.0012,0 0.002,10e-4 -4e-4,-10e-4 -0.0012,-10e-4 -0.002,-10e-4 m 0.0168,0.011 c 0,0 4e-4,0 8e-4,0 -4e-4,0 -8e-4,0 -8e-4,0 m 0.0324,0.022 c 4e-4,0 4e-4,0 4e-4,0 h -4e-4"
       style="fill:#ded5aa;fill-opacity:1;fill-rule:nonzero;stroke:none;stroke-width:0.1"
       id="path6574" /><path
       d="m 73.8926,264.307 c -2.1969,0 -4.6996,0.668 -6.9887,1.87 -2.3078,1.211 -4.3984,2.964 -5.7387,5.12 -0.0027,0.004 -0.005,0.009 -0.0078,0.013 -8e-4,10e-4 -0.0011,0.002 -0.0019,0.003 -0.002,0.003 -0.0039,0.007 -0.0059,0.01 -8e-4,0.001 -0.0016,0.002 -0.0019,0.003 -0.0024,0.003 -0.0039,0.006 -0.0063,0.01 -4e-4,10e-4 -0.0012,0.002 -0.0019,0.003 -0.002,0.003 -0.0047,0.008 -0.0071,0.011 0,10e-4 0,10e-4 -4e-4,10e-4 -0.005,0.009 -0.0105,0.017 -0.0156,0.026 -4e-4,10e-4 -8e-4,10e-4 -0.0012,0.002 -0.0019,0.003 -0.0043,0.007 -0.0062,0.011 -8e-4,0.001 -0.0012,0.002 -0.002,0.003 -0.0019,0.003 -0.0043,0.007 -0.0062,0.01 -4e-4,10e-4 -8e-4,10e-4 -0.0012,0.002 -0.0078,0.013 -0.0152,0.026 -0.0226,0.038 -8e-4,0.002 -0.0012,0.003 -0.002,0.004 -0.002,0.003 -0.0035,0.006 -0.0055,0.009 -7e-4,10e-4 -0.0015,0.002 -0.0023,0.004 -0.0016,0.003 -0.0027,0.005 -0.0043,0.008 -0.0012,10e-4 -0.0024,0.003 -0.0031,0.005 -0.0016,0.003 -0.0032,0.005 -0.0047,0.008 -8e-4,0.001 -0.0016,0.003 -0.0024,0.004 -0.0023,0.004 -0.0043,0.008 -0.0066,0.012 -0.0012,0.002 -0.0023,0.004 -0.0035,0.006 -0.0012,0.002 -0.0024,0.004 -0.0035,0.006 -0.0012,0.002 -0.0024,0.004 -0.0039,0.007 -8e-4,10e-4 -0.0016,0.003 -0.0028,0.004 -0.0011,0.003 -0.0027,0.005 -0.0043,0.008 -8e-4,10e-4 -0.0011,0.002 -0.0019,0.004 -1.0188,1.8 -0.7891,3.44 0.0996,4.906 0.0793,-0.156 0.166,-0.313 0.2644,-0.471 2.67,-4.296 8.3153,-6.99 12.7274,-6.99 0.0012,0 0.0027,0 0.0039,0 0.1012,-0.215 0.2726,-0.446 0.5,-0.654 0.3555,-0.324 0.7547,-0.507 1.0473,-0.507 0.1343,0 0.246,0.038 0.3203,0.12 0.2097,0.23 0.0543,0.721 -0.3438,1.159 0.8754,0.143 1.6692,0.418 2.3402,0.835 1.8567,1.154 3.1504,3.639 3.6969,6.545 0.3989,-4.597 -1.0566,-9.284 -3.759,-11.109 0,0 0,0 -4e-4,0 -0.0105,-0.008 -0.021,-0.015 -0.0316,-0.022 -4e-4,0 -8e-4,0 -8e-4,0 -0.0051,-0.004 -0.0097,-0.007 -0.0148,-0.01 -8e-4,-10e-4 -0.0012,-10e-4 -0.002,-10e-4 -0.0101,-0.007 -0.0207,-0.014 -0.0312,-0.021 -4e-4,0 -4e-4,0 -0.0012,-0.001 -0.0043,-0.002 -0.009,-0.006 -0.0137,-0.008 -0.0011,-10e-4 -0.0019,-0.002 -0.0031,-0.003 -0.0101,-0.006 -0.0199,-0.012 -0.0301,-0.019 -0.0011,0 -0.0023,-0.001 -0.0035,-0.002 -0.0039,-0.002 -0.0078,-0.005 -0.0117,-0.007 -0.0016,-10e-4 -0.0023,-0.002 -0.0039,-0.003 -0.0051,-0.003 -0.0102,-0.006 -0.0149,-0.009 v 0 c -1.0437,-0.649 -2.3867,-0.953 -3.8679,-0.953"
       style="fill:#e58592;fill-opacity:1;fill-rule:nonzero;stroke:none;stroke-width:0.1"
       id="path6576" /><path
       d="m 75.6688,267.816 c -0.2926,0 -0.6918,0.183 -1.0473,0.507 -0.2274,0.208 -0.3988,0.439 -0.5,0.654 0.5281,0 1.0383,0.039 1.5238,0.118 0.3981,-0.438 0.5535,-0.929 0.3438,-1.159 -0.0743,-0.082 -0.186,-0.12 -0.3203,-0.12"
       style="fill:#e0cd51;fill-opacity:1;fill-rule:nonzero;stroke:none;stroke-width:0.1"
       id="path6578" /><path
       d="m 67.2039,264.307 c 0,0 2.4383,2.506 5.4953,2.393 3.0574,-0.114 2.9567,1.129 4.6488,2.093 1.6926,0.964 1.3282,7.382 6.0399,6.608 4.7117,-0.775 -3.7887,-12.891 -6.7856,-13.91 -2.9968,-1.019 -9.3984,2.816 -9.3984,2.816"
       style="fill:#f1e5b6;fill-opacity:1;fill-rule:nonzero;stroke:none;stroke-width:0.1"
       id="path6580" /></g></svg>