<?xml version="1.0" encoding="UTF-8" standalone="no"?>
<svg
   xmlns:dc="http://purl.org/dc/elements/1.1/"
   xmlns:cc="http://creativecommons.org/ns#"
   xmlns:rdf="http://www.w3.org/1999/02/22-rdf-syntax-ns#"
   xmlns:svg="http://www.w3.org/2000/svg"
   xmlns="http://www.w3.org/2000/svg"
   viewBox="0 0 183.54826 183.54798"
   height="183.54799"
   width="183.54826"
   xml:space="preserve"
   id="svg2"
   version="1.1"><metadata
     id="metadata8"><rdf:RDF><cc:Work
         rdf:about=""><dc:format>image/svg+xml</dc:format><dc:type
           rdf:resource="http://purl.org/dc/dcmitype/StillImage" /><dc:title></dc:title></cc:Work></rdf:RDF></metadata><defs
     id="defs6"><clipPath
       id="clipPath20"
       clipPathUnits="userSpaceOnUse"><path
         id="path18"
         d="M 8000,0 H 0 V 8000 H 8000 V 0 M 6539.93,3890.52 c -380.14,0 -688.29,-308.16 -688.29,-688.31 0,-380.13 308.15,-688.31 688.29,-688.31 380.15,0 688.32,308.18 688.32,688.31 0,380.15 -308.17,688.31 -688.32,688.31 M 4836.78,5686.1 c -370.18,0 -675.92,-294.21 -687.55,-666.85 -11.86,-379.95 286.54,-697.58 666.49,-709.43 7.33,-0.23 14.58,-0.34 21.86,-0.34 370.18,0 675.95,294.22 687.59,666.84 11.86,379.96 -286.57,697.58 -666.52,709.44 -7.32,0.22 -14.59,0.34 -21.87,0.34" /></clipPath><radialGradient
       id="radialGradient26"
       spreadMethod="pad"
       gradientTransform="matrix(4000,0,0,-4000,4000,4000)"
       gradientUnits="userSpaceOnUse"
       r="1"
       cy="0"
       cx="0"
       fy="0"
       fx="0"><stop
         id="stop22"
         offset="0"
         style="stop-opacity:1;stop-color:#ffffff" /><stop
         id="stop24"
         offset="1"
         style="stop-opacity:1;stop-color:#fefeed" /></radialGradient><clipPath
       id="clipPath90"
       clipPathUnits="userSpaceOnUse"><path
         id="path88"
         d="m 1078.73,3121.01 c -14.91,-0.04 -25.2,-15.15 -19.55,-28.95 29.38,-71.73 127.54,-252.33 371,-252.33 243.34,0 343.71,181.85 374.02,254.22 5.81,13.87 -4.57,29.14 -19.61,29.1 l -705.86,-2.04" /></clipPath><clipPath
       id="clipPath110"
       clipPathUnits="userSpaceOnUse"><path
         id="path108"
         d="m 1078.73,4930.83 c -14.91,-0.04 -25.2,-15.15 -19.55,-28.95 29.38,-71.73 127.54,-252.33 371,-252.33 243.34,0 343.71,181.85 374.02,254.22 5.81,13.87 -4.57,29.15 -19.61,29.1 l -705.86,-2.04" /></clipPath><clipPath
       id="clipPath186"
       clipPathUnits="userSpaceOnUse"><path
         id="path184"
         d="m 6186.95,1327.5 c -14.92,-0.04 -25.2,-15.15 -19.55,-28.95 29.38,-71.73 127.54,-252.33 371,-252.33 243.34,0 343.71,181.85 374.02,254.21 5.81,13.87 -4.57,29.15 -19.61,29.11 l -705.86,-2.04" /></clipPath><clipPath
       id="clipPath210"
       clipPathUnits="userSpaceOnUse"><path
         id="path208"
         d="m 6197.4,6690.83 c -14.92,-0.04 -25.21,-15.14 -19.55,-28.95 29.38,-71.73 127.54,-252.33 370.99,-252.33 243.35,0 343.72,181.85 374.03,254.22 5.81,13.87 -4.57,29.15 -19.61,29.1 l -705.86,-2.04" /></clipPath></defs><g
     transform="matrix(1.3333333,0,0,-1.3333333,-99.122398,997.55598)"
     id="g10"><path
       d="m 212.003,679.336 c 0,-38.013 -30.817,-68.83 -68.831,-68.83 -38.014,0 -68.8302,30.817 -68.8302,68.83 0,38.015 30.8162,68.831 68.8302,68.831 38.014,0 68.831,-30.816 68.831,-68.831"
       style="fill:#fad012;fill-opacity:1;fill-rule:nonzero;stroke:none;stroke-width:0.1"
       id="path30" /><path
       d="m 111.839,678.336 v 0 c -2.75,0 -5,2.25 -5,5 v 12 c 0,2.75 2.25,5 5,5 v 0 c 2.75,0 5,-2.25 5,-5 v -12 c 0,-2.75 -2.25,-5 -5,-5"
       style="fill:#392f17;fill-opacity:1;fill-rule:nonzero;stroke:none;stroke-width:0.1"
       id="path32" /><path
       d="m 174.506,678.336 v 0 c -2.75,0 -5,2.25 -5,5 v 12 c 0,2.75 2.25,5 5,5 v 0 c 2.75,0 5,-2.25 5,-5 v -12 c 0,-2.75 -2.25,-5 -5,-5"
       style="fill:#392f17;fill-opacity:1;fill-rule:nonzero;stroke:none;stroke-width:0.1"
       id="path34" /><path
       d="m 164.474,662.211 0.064,-0.018 -0.064,0.02 v -0.002 l 0.064,-0.018 -0.064,0.02 c -0.068,-0.257 -1.4,-4.399 -4.705,-8.239 -1.65,-1.927 -3.77,-3.783 -6.477,-5.163 -2.712,-1.376 -6.019,-2.306 -10.229,-2.311 -4.351,0.005 -7.722,0.988 -10.458,2.425 -2.049,1.081 -3.741,2.434 -5.142,3.877 -2.101,2.162 -3.531,4.535 -4.412,6.347 -0.441,0.905 -0.745,1.667 -0.933,2.183 -0.094,0.258 -0.159,0.454 -0.198,0.576 l -0.038,0.126 -0.005,0.018 -1.517,-0.433 1.52,0.419 -0.003,0.014 -1.517,-0.433 1.52,0.419 c -0.513,1.863 -2.441,2.957 -4.304,2.444 -1.864,-0.514 -2.958,-2.442 -2.444,-4.305 0.087,-0.278 1.443,-5.213 5.605,-10.336 2.083,-2.554 4.895,-5.152 8.603,-7.108 3.703,-1.958 8.292,-3.238 13.723,-3.233 5.435,-0.005 10.038,1.286 13.758,3.257 2.793,1.474 5.089,3.314 6.949,5.223 2.791,2.866 4.614,5.879 5.765,8.198 1.148,2.32 1.624,3.954 1.669,4.111 0.531,1.858 -0.545,3.795 -2.404,4.326 -1.858,0.531 -3.795,-0.545 -4.326,-2.404"
       style="fill:#392f17;fill-opacity:1;fill-rule:nonzero;stroke:none;stroke-width:0.1"
       id="path36" /></g></svg>